<svg viewBox="0 0 860 320" xmlns="http://www.w3.org/2000/svg" font-family="monospace">
  <rect width="860" height="320" fill="#0d0d0f" rx="10"/>
  <rect width="860" height="320" fill="none" stroke="#2a2a35" stroke-width="1" rx="10"/>

  <!-- Title -->
  <text x="430" y="30" font-size="10" fill="#666680" text-anchor="middle" letter-spacing="2">COLOR SCHEME EXAMPLES</text>

  <!-- Example 1: Default (dark on light) -->
  <rect x="20" y="48" width="258" height="200" fill="#f0f0f0" rx="4" stroke="#2a2a35" stroke-width="1"/>
  <!-- Pixel art D -->
  <g transform="translate(40, 70)">
    <rect x="0" y="0" width="10" height="10" fill="#111" stroke="white" stroke-width="0.5"/>
    <rect x="0" y="10" width="10" height="10" fill="#111" stroke="white" stroke-width="0.5"/>
    <rect x="0" y="20" width="10" height="10" fill="#111" stroke="white" stroke-width="0.5"/>
    <rect x="0" y="30" width="10" height="10" fill="#111" stroke="white" stroke-width="0.5"/>
    <rect x="0" y="40" width="10" height="10" fill="#111" stroke="white" stroke-width="0.5"/>
    <rect x="0" y="50" width="10" height="10" fill="#111" stroke="white" stroke-width="0.5"/>
    <rect x="0" y="60" width="10" height="10" fill="#111" stroke="white" stroke-width="0.5"/>
    <rect x="10" y="0" width="10" height="10" fill="#111" stroke="white" stroke-width="0.5"/>
    <rect x="20" y="0" width="10" height="10" fill="#111" stroke="white" stroke-width="0.5"/>
    <rect x="30" y="10" width="10" height="10" fill="#111" stroke="white" stroke-width="0.5"/>
    <rect x="30" y="20" width="10" height="10" fill="#111" stroke="white" stroke-width="0.5"/>
    <rect x="30" y="30" width="10" height="10" fill="#111" stroke="white" stroke-width="0.5"/>
    <rect x="30" y="40" width="10" height="10" fill="#111" stroke="white" stroke-width="0.5"/>
    <rect x="30" y="50" width="10" height="10" fill="#111" stroke="white" stroke-width="0.5"/>
    <rect x="20" y="60" width="10" height="10" fill="#111" stroke="white" stroke-width="0.5"/>
    <rect x="10" y="60" width="10" height="10" fill="#111" stroke="white" stroke-width="0.5"/>
  </g>
  <text x="149" y="260" font-size="10" fill="#666680" text-anchor="middle">Default</text>
  <text x="149" y="274" font-size="9" fill="#444455" text-anchor="middle">on:#111111 · off:#c8c8c8/#f0f0f0</text>

  <!-- Example 2: Neon on dark -->
  <rect x="300" y="48" width="258" height="200" fill="#0a0a12" rx="4" stroke="#2a2a35" stroke-width="1"/>
  <g transform="translate(320, 70)">
    <rect x="0" y="0" width="10" height="10" fill="#e8ff47" stroke="#0a0a12" stroke-width="0.5"/>
    <rect x="0" y="10" width="10" height="10" fill="#e8ff47" stroke="#0a0a12" stroke-width="0.5"/>
    <rect x="0" y="20" width="10" height="10" fill="#e8ff47" stroke="#0a0a12" stroke-width="0.5"/>
    <rect x="0" y="30" width="10" height="10" fill="#e8ff47" stroke="#0a0a12" stroke-width="0.5"/>
    <rect x="0" y="40" width="10" height="10" fill="#e8ff47" stroke="#0a0a12" stroke-width="0.5"/>
    <rect x="0" y="50" width="10" height="10" fill="#e8ff47" stroke="#0a0a12" stroke-width="0.5"/>
    <rect x="0" y="60" width="10" height="10" fill="#e8ff47" stroke="#0a0a12" stroke-width="0.5"/>
    <rect x="10" y="0" width="10" height="10" fill="#e8ff47" stroke="#0a0a12" stroke-width="0.5"/>
    <rect x="20" y="0" width="10" height="10" fill="#e8ff47" stroke="#0a0a12" stroke-width="0.5"/>
    <rect x="30" y="10" width="10" height="10" fill="#e8ff47" stroke="#0a0a12" stroke-width="0.5"/>
    <rect x="30" y="20" width="10" height="10" fill="#e8ff47" stroke="#0a0a12" stroke-width="0.5"/>
    <rect x="30" y="30" width="10" height="10" fill="#e8ff47" stroke="#0a0a12" stroke-width="0.5"/>
    <rect x="30" y="40" width="10" height="10" fill="#e8ff47" stroke="#0a0a12" stroke-width="0.5"/>
    <rect x="30" y="50" width="10" height="10" fill="#e8ff47" stroke="#0a0a12" stroke-width="0.5"/>
    <rect x="20" y="60" width="10" height="10" fill="#e8ff47" stroke="#0a0a12" stroke-width="0.5"/>
    <rect x="10" y="60" width="10" height="10" fill="#e8ff47" stroke="#0a0a12" stroke-width="0.5"/>
  </g>
  <text x="429" y="260" font-size="10" fill="#666680" text-anchor="middle">Neon / Dark</text>
  <text x="429" y="274" font-size="9" fill="#444455" text-anchor="middle">on:#e8ff47 · off:#0d0d14/#12121e</text>

  <!-- Example 3: Retro green phosphor -->
  <rect x="580" y="48" width="258" height="200" fill="#001200" rx="4" stroke="#2a2a35" stroke-width="1"/>
  <g transform="translate(600, 70)">
    <rect x="0" y="0" width="10" height="10" fill="#39ff14" stroke="#001200" stroke-width="0.5"/>
    <rect x="0" y="10" width="10" height="10" fill="#39ff14" stroke="#001200" stroke-width="0.5"/>
    <rect x="0" y="20" width="10" height="10" fill="#39ff14" stroke="#001200" stroke-width="0.5"/>
    <rect x="0" y="30" width="10" height="10" fill="#39ff14" stroke="#001200" stroke-width="0.5"/>
    <rect x="0" y="40" width="10" height="10" fill="#39ff14" stroke="#001200" stroke-width="0.5"/>
    <rect x="0" y="50" width="10" height="10" fill="#39ff14" stroke="#001200" stroke-width="0.5"/>
    <rect x="0" y="60" width="10" height="10" fill="#39ff14" stroke="#001200" stroke-width="0.5"/>
    <rect x="10" y="0" width="10" height="10" fill="#39ff14" stroke="#001200" stroke-width="0.5"/>
    <rect x="20" y="0" width="10" height="10" fill="#39ff14" stroke="#001200" stroke-width="0.5"/>
    <rect x="30" y="10" width="10" height="10" fill="#39ff14" stroke="#001200" stroke-width="0.5"/>
    <rect x="30" y="20" width="10" height="10" fill="#39ff14" stroke="#001200" stroke-width="0.5"/>
    <rect x="30" y="30" width="10" height="10" fill="#39ff14" stroke="#001200" stroke-width="0.5"/>
    <rect x="30" y="40" width="10" height="10" fill="#39ff14" stroke="#001200" stroke-width="0.5"/>
    <rect x="30" y="50" width="10" height="10" fill="#39ff14" stroke="#001200" stroke-width="0.5"/>
    <rect x="20" y="60" width="10" height="10" fill="#39ff14" stroke="#001200" stroke-width="0.5"/>
    <rect x="10" y="60" width="10" height="10" fill="#39ff14" stroke="#001200" stroke-width="0.5"/>
  </g>
  <text x="709" y="260" font-size="10" fill="#666680" text-anchor="middle">Retro Phosphor</text>
  <text x="709" y="274" font-size="9" fill="#444455" text-anchor="middle">on:#39ff14 · off:#001a00/#002200</text>

  <text x="430" y="308" font-size="10" fill="#666680" text-anchor="middle">Three color presets — fully customizable via the color pickers</text>
</svg>
